<svg xmlns="http://www.w3.org/2000/svg" xmlns:xlink="http://www.w3.org/1999/xlink" width="500" zoomAndPan="magnify" viewBox="0 0 375 374.999991" height="500" preserveAspectRatio="xMidYMid meet" version="1.0"><defs><clipPath id="5b19e677b4"><path d="M 7.527344 7.527344 L 367.527344 7.527344 L 367.527344 367.527344 L 7.527344 367.527344 Z M 7.527344 7.527344 " clip-rule="nonzero"/></clipPath></defs><g clip-path="url(#5b19e677b4)"><path fill="#1a4789" d="M 367.527344 312.78125 C 367.527344 342.996094 343.039062 367.484375 312.828125 367.484375 L 62.242188 367.484375 C 32.03125 367.484375 7.539062 342.996094 7.539062 312.78125 L 7.539062 62.199219 C 7.539062 31.988281 32.03125 7.496094 62.242188 7.496094 L 312.824219 7.496094 C 343.035156 7.496094 367.527344 31.988281 367.527344 62.199219 Z M 367.527344 312.78125 " fill-opacity="1" fill-rule="nonzero"/></g><path fill="#ffffff" d="M 246.066406 215.460938 L 251.890625 170.324219 L 207.191406 170.324219 L 207.191406 141.507812 C 207.191406 128.4375 210.835938 119.53125 229.574219 119.53125 L 253.457031 119.519531 L 253.457031 79.148438 C 249.332031 78.601562 235.15625 77.371094 218.632812 77.371094 C 184.171875 77.371094 160.589844 98.410156 160.589844 137.039062 L 160.589844 170.324219 L 121.613281 170.324219 L 121.613281 215.460938 L 160.589844 215.460938 L 160.589844 331.277344 L 207.191406 331.277344 L 207.191406 215.460938 Z M 246.066406 215.460938 " fill-opacity="1" fill-rule="nonzero"/></svg>