<svg xmlns="http://www.w3.org/2000/svg" xmlns:xlink="http://www.w3.org/1999/xlink" width="500" zoomAndPan="magnify" viewBox="0 0 375 374.999991" height="500" preserveAspectRatio="xMidYMid meet" version="1.0"><defs><clipPath id="d1fccb3457"><path d="M 7.59375 7.59375 L 367.59375 7.59375 L 367.59375 367.59375 L 7.59375 367.59375 Z M 7.59375 7.59375 " clip-rule="nonzero"/></clipPath></defs><g clip-path="url(#d1fccb3457)"><path fill="#0277b5" d="M 337.515625 7.59375 L 37.847656 7.59375 C 21.277344 7.59375 7.953125 21.097656 7.953125 37.488281 L 7.953125 337.699219 C 7.953125 354.265625 21.460938 367.59375 37.847656 367.59375 L 337.335938 367.59375 C 353.90625 367.59375 367.230469 354.085938 367.230469 337.699219 L 367.230469 37.488281 C 367.414062 21.097656 354.085938 7.59375 337.515625 7.59375 Z M 114.386719 304.5625 L 61.257812 304.5625 L 61.257812 145 L 114.386719 145 Z M 87.734375 125.730469 C 70.984375 125.730469 57.476562 112.226562 57.476562 95.476562 C 57.476562 78.726562 70.984375 65.222656 87.734375 65.222656 C 104.480469 65.222656 117.988281 78.726562 117.988281 95.476562 C 117.988281 112.226562 104.480469 125.730469 87.734375 125.730469 Z M 314.285156 304.5625 L 260.980469 304.5625 L 259.71875 209.832031 C 259.71875 209.832031 260.980469 184.621094 233.425781 184.800781 C 205.871094 184.980469 202.089844 209.832031 202.089844 209.832031 L 202.089844 304.5625 L 148.421875 304.5625 L 148.421875 145 L 199.929688 145 L 199.929688 166.972656 C 199.929688 166.972656 202.089844 159.769531 213.976562 151.304688 C 225.863281 142.839844 245.492188 141.039062 253.957031 141.398438 C 262.417969 141.757812 273.945312 140.320312 293.214844 153.644531 C 313.925781 167.871094 314.464844 205.152344 314.464844 205.152344 Z M 314.285156 304.5625 " fill-opacity="1" fill-rule="nonzero"/></g></svg>