<svg xmlns="http://www.w3.org/2000/svg" xmlns:xlink="http://www.w3.org/1999/xlink" width="500" zoomAndPan="magnify" viewBox="0 0 375 374.999991" height="500" preserveAspectRatio="xMidYMid meet" version="1.0"><defs><clipPath id="c6ec8e8063"><path d="M 7.527344 7.527344 L 367.527344 7.527344 L 367.527344 367.527344 L 7.527344 367.527344 Z M 7.527344 7.527344 " clip-rule="nonzero"/></clipPath></defs><g clip-path="url(#c6ec8e8063)"><path fill="#1d9bf0" d="M 322.527344 367.527344 L 52.527344 367.527344 C 27.6875 367.527344 7.527344 347.367188 7.527344 322.527344 L 7.527344 52.527344 C 7.527344 27.6875 27.6875 7.527344 52.527344 7.527344 L 322.527344 7.527344 C 347.367188 7.527344 367.527344 27.6875 367.527344 52.527344 L 367.527344 322.527344 C 367.527344 347.367188 347.367188 367.527344 322.527344 367.527344 Z M 322.527344 367.527344 " fill-opacity="1" fill-rule="nonzero"/></g><path fill="#ffffff" d="M 145.765625 278.964844 C 230.636719 278.964844 277.078125 208.585938 277.078125 147.65625 C 277.078125 145.675781 277.078125 143.695312 276.988281 141.714844 C 285.988281 135.238281 293.816406 127.046875 300.027344 117.777344 C 291.746094 121.464844 282.835938 123.894531 273.476562 125.066406 C 283.015625 119.394531 290.304688 110.304688 293.816406 99.507812 C 284.90625 104.816406 275.007812 108.597656 264.476562 110.667969 C 256.015625 101.667969 244.046875 96.085938 230.816406 96.085938 C 205.347656 96.085938 184.644531 116.785156 184.644531 142.257812 C 184.644531 145.855469 185.097656 149.367188 185.816406 152.785156 C 147.476562 150.894531 113.457031 132.445312 90.6875 104.546875 C 86.726562 111.386719 84.476562 119.304688 84.476562 127.765625 C 84.476562 143.785156 92.667969 157.917969 104.996094 166.195312 C 97.4375 165.925781 90.328125 163.855469 84.117188 160.4375 C 84.117188 160.617188 84.117188 160.796875 84.117188 161.066406 C 84.117188 183.386719 100.046875 202.105469 121.105469 206.335938 C 117.238281 207.417969 113.1875 207.957031 108.957031 207.957031 C 105.988281 207.957031 103.105469 207.6875 100.316406 207.144531 C 106.167969 225.507812 123.265625 238.828125 143.425781 239.1875 C 127.585938 251.605469 107.695312 258.988281 86.097656 258.988281 C 82.40625 258.988281 78.714844 258.804688 75.117188 258.355469 C 95.457031 271.316406 119.757812 278.964844 145.765625 278.964844 " fill-opacity="1" fill-rule="nonzero"/></svg>