<svg xmlns="http://www.w3.org/2000/svg" xmlns:xlink="http://www.w3.org/1999/xlink" width="500" zoomAndPan="magnify" viewBox="0 0 375 374.999991" height="500" preserveAspectRatio="xMidYMid meet" version="1.0"><path fill="#80af52" d="M 301.195312 73.902344 C 236.191406 8.90625 132.167969 7.558594 68.839844 70.886719 C 13.21875 126.511719 7.5 213.523438 50.960938 277.910156 L 21.320312 358.042969 L 98.773438 325.195312 C 163.003906 367.5 249.046875 361.414062 304.207031 306.253906 C 367.535156 242.925781 366.1875 138.902344 301.195312 73.902344 Z M 301.195312 73.902344 " fill-opacity="1" fill-rule="nonzero"/><path fill="#d7deed" d="M 264.953125 226.332031 C 280.171875 235.5 283.144531 234.816406 283.144531 244.101562 C 283.144531 252.585938 263.300781 280.058594 240.84375 280.078125 C 207.96875 280.058594 172.050781 259.832031 143.855469 232.402344 C 116.421875 204.203125 96.195312 168.285156 96.179688 135.410156 C 96.179688 112.9375 123.667969 93.113281 132.152344 93.113281 C 141.4375 93.113281 140.753906 96.082031 149.921875 111.300781 C 155.027344 119.765625 167.136719 135.683594 164.839844 141.625 C 161.554688 150.082031 141.652344 160.023438 141.652344 166.085938 C 141.667969 186.285156 189.964844 234.585938 210.167969 234.601562 C 216.210938 234.585938 226.152344 214.675781 234.628906 211.414062 C 240.570312 209.117188 256.488281 221.230469 264.953125 226.332031 Z M 264.953125 226.332031 " fill-opacity="1" fill-rule="nonzero"/></svg>